<?xml version="1.0" encoding="UTF-8" standalone="no"?>
<!-- Created with Inkscape (http://www.inkscape.org/) -->

<svg
   xmlns:dc="http://purl.org/dc/elements/1.1/"
   xmlns:cc="http://creativecommons.org/ns#"
   xmlns:rdf="http://www.w3.org/1999/02/22-rdf-syntax-ns#"
   xmlns:svg="http://www.w3.org/2000/svg"
   xmlns="http://www.w3.org/2000/svg"
   xmlns:sodipodi="http://sodipodi.sourceforge.net/DTD/sodipodi-0.dtd"
   xmlns:inkscape="http://www.inkscape.org/namespaces/inkscape"
   width="512"
   height="512"
   viewBox="0 0 135.46666 135.46667"
   version="1.1"
   id="svg8"
   inkscape:version="0.92.5 (2060ec1f9f, 2020-04-08)"
   sodipodi:docname="logo.svg">
  <defs
     id="defs2" />
  <sodipodi:namedview
     id="base"
     pagecolor="#ffffff"
     bordercolor="#666666"
     borderopacity="1.0"
     inkscape:pageopacity="0.0"
     inkscape:pageshadow="2"
     inkscape:zoom="0.25"
     inkscape:cx="4280.5496"
     inkscape:cy="-2513.3116"
     inkscape:document-units="mm"
     inkscape:current-layer="layer1"
     showgrid="false"
     units="px"
     inkscape:window-width="3840"
     inkscape:window-height="2081"
     inkscape:window-x="0"
     inkscape:window-y="0"
     inkscape:window-maximized="1" />
  <metadata
     id="metadata5">
    <rdf:RDF>
      <cc:Work
         rdf:about="">
        <dc:format>image/svg+xml</dc:format>
        <dc:type
           rdf:resource="http://purl.org/dc/dcmitype/StillImage" />
        <dc:title></dc:title>
      </cc:Work>
    </rdf:RDF>
  </metadata>
  <g
     inkscape:groupmode="layer"
     id="layer2"
     inkscape:label="Layer 2">
    <path
       style="opacity:1;fill:#003399;fill-opacity:1;stroke:#000000;stroke-width:0.02777114;stroke-miterlimit:4;stroke-dasharray:none;stroke-opacity:1"
       d="M 136.69624,83.757503 124.75602,90.954882 3.2408059,134.93625 0.85424623,129.79703 122.2396,85.655578"
       id="rect815-5-3"
       inkscape:connector-curvature="0"
       sodipodi:nodetypes="ccccc" />
    <path
       style="opacity:1;fill:#ff3300;fill-opacity:1;stroke:#000000;stroke-width:0.02645833;stroke-miterlimit:4;stroke-dasharray:none;stroke-opacity:1"
       id="path909"
       sodipodi:type="arc"
       sodipodi:cx="-86.178574"
       sodipodi:cy="3.5529759"
       sodipodi:rx="5.2916665"
       sodipodi:ry="9.1659222"
       sodipodi:start="0"
       sodipodi:end="0.00088775125"
       sodipodi:open="true"
       d="m -80.886907,3.5529759 a 5.2916665,9.1659222 0 0 1 -2e-6,0.00814" />
    <path
       style="opacity:1;fill:#ff3300;fill-opacity:1;stroke:#000000;stroke-width:0.02645833;stroke-miterlimit:4;stroke-dasharray:none;stroke-opacity:1"
       id="path911"
       sodipodi:type="arc"
       sodipodi:cx="-83.579987"
       sodipodi:cy="2.1396337"
       sodipodi:rx="2.693078"
       sodipodi:ry="1.4214792"
       sodipodi:start="0"
       sodipodi:end="0.00088775125"
       sodipodi:open="true"
       d="m -80.886909,2.1396337 a 2.693078,1.4214792 0 0 1 -10e-7,0.00126" />
  </g>
  <g
     inkscape:label="Layer 1"
     inkscape:groupmode="layer"
     id="layer1"
     transform="translate(0,-161.53332)">
    <path
       style="opacity:1;fill:#3e9ade;fill-opacity:1;stroke:#000000;stroke-width:0.02648685;stroke-miterlimit:4;stroke-dasharray:none;stroke-opacity:1"
       d="M 3.4962782,162.7041 6.1421121,175.73981 6.3310961,296.811 H 0.85044623 L 0.47247003,175.78716"
       id="rect815"
       inkscape:connector-curvature="0"
       sodipodi:nodetypes="ccccc" />
    <path
       style="opacity:1;fill:#0083d7;fill-opacity:1;stroke:#000000;stroke-width:0.02648685;stroke-miterlimit:4;stroke-dasharray:none;stroke-opacity:1"
       d="m 134.95928,294.06877 -13.03753,2.63683 -121.07130377,0.1054 0.0038,-5.48065 121.02408377,-0.29442"
       id="rect815-5"
       inkscape:connector-curvature="0"
       sodipodi:nodetypes="ccccc" />
    <path
       style="opacity:1;fill:#ffcc00;fill-opacity:1;stroke:#000000;stroke-width:2.07793593;stroke-miterlimit:4;stroke-dasharray:none;stroke-opacity:1"
       d="m 120.86159,216.35897 a 6.6652479,13.459771 36.818859 0 0 -7.84863,10.24176 6.6652479,13.459771 36.818859 0 0 -1.08602,6.84039 5.1522204,9.5357659 59.26105 0 0 -3.06851,3.99017 5.1522204,9.5357659 59.26105 0 0 5.5238,5.08389 5.1522204,9.5357659 59.26105 0 0 10.84895,-7.80214 5.1522204,9.5357659 59.26105 0 0 -0.044,-3.58223 6.6652479,13.459771 36.818859 0 0 4.71585,-7.33395 6.6652479,13.459771 36.818859 0 0 -3.73215,-10.00361 6.6652479,13.459771 36.818859 0 0 -5.3093,2.56572 z"
       id="path915-5"
       inkscape:connector-curvature="0"
       inkscape:transform-center-x="8.997065"
       inkscape:transform-center-y="-0.75044587" />
    <path
       style="opacity:1;fill:#ffcc00;fill-opacity:1;stroke:#000000;stroke-width:2.17918587;stroke-miterlimit:4;stroke-dasharray:none;stroke-opacity:1"
       d="m 83.37298,226.05049 a 6.9455449,14.206001 55.604616 0 0 -11.531434,7.17173 6.9455449,14.206001 55.604616 0 0 -3.926076,6.50146 5.5799068,9.6838321 78.435827 0 0 -4.502371,2.78968 5.5799068,9.6838321 78.435827 0 0 2.833638,7.43911 5.5799068,9.6838321 78.435827 0 0 13.208822,-3.45796 5.5799068,9.6838321 78.435827 0 0 1.499404,-3.65705 6.9455449,14.206001 55.604616 0 0 7.43582,-5.50801 6.9455449,14.206001 55.604616 0 0 0.908159,-11.6989 6.9455449,14.206001 55.604616 0 0 -5.925963,0.41991 z"
       id="path915-5-2"
       inkscape:connector-curvature="0"
       inkscape:transform-center-x="6.3938119"
       inkscape:transform-center-y="2.5965807" />
    <path
       style="opacity:1;fill:#ffcc00;fill-opacity:1;stroke:#000000;stroke-width:2.38485718;stroke-miterlimit:4;stroke-dasharray:none;stroke-opacity:1"
       d="m 39.342583,254.68492 a 7.7623332,15.223766 84.047416 0 0 -14.513583,0.67535 7.7623332,15.223766 84.047416 0 0 -7.164638,4.19652 10.318994,6.2715234 18.988561 0 0 -5.660997,0.25346 10.318994,6.2715234 18.988561 0 0 -1.472562,8.82442 10.318994,6.2715234 18.988561 0 0 14.019683,3.87428 10.318994,6.2715234 18.988561 0 0 3.379239,-2.74981 7.7623332,15.223766 84.047416 0 0 9.842624,-1.29869 7.7623332,15.223766 84.047416 0 0 7.240406,-10.93188 7.7623332,15.223766 84.047416 0 0 -5.670158,-2.84357 z"
       id="path915-5-9"
       inkscape:connector-curvature="0"
       inkscape:transform-center-x="4.4913344"
       inkscape:transform-center-y="-28.449415" />
    <path
       style="opacity:1;fill:#ffcc00;fill-opacity:1;stroke:#000000;stroke-width:2.07793593;stroke-miterlimit:4;stroke-dasharray:none;stroke-opacity:1"
       d="m 84.473085,260.21139 a 6.6652479,13.459771 75.145062 0 0 -12.508493,3.16736 6.6652479,13.459771 75.145062 0 0 -5.093961,4.69275 9.5357659,5.1522204 7.5872535 0 0 -4.881693,1.22736 9.5357659,5.1522204 7.5872535 0 0 1.180672,7.41381 9.5357659,5.1522204 7.5872535 0 0 13.349322,0.60712 9.5357659,5.1522204 7.5872535 0 0 2.186977,-2.83753 6.6652479,13.459771 75.145062 0 0 8.247611,-2.82895 6.6652479,13.459771 75.145062 0 0 3.275763,-10.16221 6.6652479,13.459771 75.145062 0 0 -5.756198,-1.27971 z"
       id="path915-5-1"
       inkscape:connector-curvature="0"
       inkscape:transform-center-x="5.0314891"
       inkscape:transform-center-y="-6.2451374" />
    <path
       style="opacity:1;fill:#ffcc00;fill-opacity:1;stroke:#000000;stroke-width:2.07793593;stroke-miterlimit:4;stroke-dasharray:none;stroke-opacity:1"
       d="m 101.8864,179.68975 a 6.6652479,13.459771 15.501348 0 0 -3.588393,12.39427 6.6652479,13.459771 15.501348 0 0 1.475015,6.76719 5.1522204,9.5357659 37.943539 0 0 -1.408003,4.83269 5.1522204,9.5357659 37.943539 0 0 6.994051,2.72795 5.1522204,9.5357659 37.943539 0 0 7.27031,-11.21231 5.1522204,9.5357659 37.943539 0 0 -1.34325,-3.32115 6.6652479,13.459771 15.501348 0 0 1.72703,-8.54653 6.6652479,13.459771 15.501348 0 0 -7.11347,-7.9624 6.6652479,13.459771 15.501348 0 0 -4.01329,4.32029 z"
       id="path915-5-27"
       inkscape:connector-curvature="0" />
  </g>
</svg>
